name Walk2.mot
datacolumns 19
datarows 10
range 1.58000000 1.62500000
endheader

                time	   L_ground_force_vx	   L_ground_force_vy	   L_ground_force_vz	   L_ground_force_px	   L_ground_force_py	   L_ground_force_pz	   R_ground_force_vx	   R_ground_force_vy	   R_ground_force_vz	   R_ground_force_px	   R_ground_force_py	   R_ground_force_pz	   L_ground_torque_x	   L_ground_torque_y	   L_ground_torque_z	   R_ground_torque_x	   R_ground_torque_y	   R_ground_torque_z	
          1.58000000	          0.00000010	          0.00000048	         -0.00000004	         -0.00000000	          0.00000000	         -0.00000000	         16.39885204	         85.93319218	         -1.14415788	          0.17044241	          0.00000000	          0.05740323	          0.00000000	         -0.00000000	          0.00000000	          0.00000000	         -3.81946065	          0.00000000	
          1.58500000	          0.00000005	          0.00000034	         -0.00000003	         -0.00000000	          0.00000000	         -0.00000000	         11.21216386	         59.00495944	         -0.82698369	          0.14837151	          0.00000000	          0.04986050	          0.00000000	         -0.00000000	          0.00000000	          0.00000000	         -2.76518549	          0.00000000	
          1.59000000	          0.00000001	          0.00000023	         -0.00000002	         -0.00000000	          0.00000000	         -0.00000000	          7.00336888	         37.15109256	         -0.57424237	          0.12357454	          0.00000000	          0.04146360	          0.00000000	         -0.00000000	          0.00000000	          0.00000000	         -1.87334024	          0.00000000	
          1.59500000	         -0.00000001	          0.00000014	         -0.00000001	         -0.00000000	          0.00000000	         -0.00000000	          3.75054369	         20.20397052	         -0.36806016	          0.09801057	          0.00000000	          0.03283925	          0.00000000	         -0.00000000	          0.00000000	          0.00000000	         -1.15343444	          0.00000000	
          1.60000000	         -0.00000003	          0.00000007	         -0.00000001	         -0.00000000	          0.00000000	         -0.00000000	          1.36794720	          7.73822519	         -0.20673184	          0.07386561	          0.00000000	          0.02471150	          0.00000000	         -0.00000000	          0.00000000	          0.00000000	         -0.60055024	          0.00000000	
          1.60500000	         -0.00000003	          0.00000002	         -0.00000000	         -0.00000000	          0.00000000	         -0.00000000	         -0.26815386	         -0.86781585	         -0.08692512	          0.05254004	          0.00000000	          0.01754495	          0.00000000	         -0.00000000	          0.00000000	          0.00000000	         -0.19850005	          0.00000000	
          1.61000000	         -0.00000004	         -0.00000002	          0.00000000	         -0.00000000	          0.00000000	         -0.00000000	         -1.29614605	         -6.31806952	         -0.00322066	          0.03470908	          0.00000000	          0.01156158	          0.00000000	         -0.00000000	          0.00000000	          0.00000000	          0.07502590	          0.00000000	
          1.61500000	         -0.00000003	         -0.00000004	          0.00000000	         -0.00000000	          0.00000000	         -0.00000000	         -1.85286805	         -9.31352871	          0.05071210	          0.02052936	          0.00000000	          0.00681019	          0.00000000	         -0.00000000	          0.00000000	          0.00000000	          0.24449915	          0.00000000	
          1.62000000	         -0.00000003	         -0.00000005	          0.00000000	         -0.00000000	          0.00000000	         -0.00000000	         -2.06334362	        -10.49787115	          0.08128742	          0.00981256	          0.00000000	          0.00322460	          0.00000000	         -0.00000000	          0.00000000	          0.00000000	          0.33384214	          0.00000000	
          1.62500000	         -0.00000003	         -0.00000005	          0.00000000	         -0.00000000	          0.00000000	         -0.00000000	         -2.03513199	        -10.42711234	          0.09446593	          0.00216403	          0.00000000	          0.00067021	          0.00000000	         -0.00000000	          0.00000000	          0.00000000	          0.36473319	          0.00000000	
